0
SECTION
2
HEADER
9
$INSUNITS
70
4
9
$ACADVER
1
AC1014
9
$HANDSEED
5
FFFF
0
ENDSEC
0
SECTION
2
TABLES
0
TABLE
2
VPORT
5
8
100
AcDbSymbolTable
0
ENDTAB
0
TABLE
2
LTYPE
5
5
100
AcDbSymbolTable
0
LTYPE
5
14
100
AcDbSymbolTableRecord
100
AcDbLinetypeTableRecord
2
BYBLOCK
70
0
0
LTYPE
5
15
100
AcDbSymbolTableRecord
100
AcDbLinetypeTableRecord
2
BYLAYER
70
0
0
ENDTAB
0
TABLE
2
LAYER
5
2
100
AcDbSymbolTable
70
2
0
LAYER
5
50
100
AcDbSymbolTableRecord
100
AcDbLayerTableRecord
2
0
70
0
6
CONTINUOUS
0
ENDTAB
0
TABLE
2
STYLE
5
3
100
AcDbSymbolTable
70
1
0
STYLE
5
11
100
AcDbSymbolTableRecord
100
AcDbTextStyleTableRecord
2
STANDARD
70
0
0
ENDTAB
0
TABLE
2
VIEW
5
6
100
AcDbSymbolTable
70
0
0
ENDTAB
0
TABLE
2
UCS
5
7
100
AcDbSymbolTable
70
0
0
ENDTAB
0
TABLE
2
APPID
5
9
100
AcDbSymbolTable
70
2
0
APPID
5
12
100
AcDbSymbolTableRecord
100
AcDbRegAppTableRecord
2
ACAD
70
0
0
ENDTAB
0
TABLE
2
DIMSTYLE
5
A
100
AcDbSymbolTable
70
1
0
ENDTAB
0
TABLE
2
BLOCK_RECORD
5
1
100
AcDbSymbolTable
70
1
0
BLOCK_RECORD
5
1F
100
AcDbSymbolTableRecord
100
AcDbBlockTableRecord
2
*MODEL_SPACE
0
BLOCK_RECORD
5
1B
100
AcDbSymbolTableRecord
100
AcDbBlockTableRecord
2
*PAPER_SPACE
0
ENDTAB
0
ENDSEC
0
SECTION
2
BLOCKS
0
BLOCK
5
20
100
AcDbEntity
100
AcDbBlockBegin
2
*MODEL_SPACE
0
ENDBLK
5
21
100
AcDbEntity
100
AcDbBlockEnd
0
BLOCK
5
1C
100
AcDbEntity
100
AcDbBlockBegin
2
*PAPER_SPACE
0
ENDBLK
5
1D
100
AcDbEntity
100
AcDbBlockEnd
0
ENDSEC
0
SECTION
2
ENTITIES
0
CIRCLE
5
100
100
AcDbEntity
8
0
100
AcDbCircle
10
-888.12286603686982
20
871.20888410316229
30
0
40
3.4999999999999432
210
0
220
0
230
1
0
CIRCLE
5
101
100
AcDbEntity
8
0
100
AcDbCircle
10
-937.62286603797952
20
846.70888410312546
30
0
40
0.99999999999994316
210
0
220
0
230
1
0
CIRCLE
5
102
100
AcDbEntity
8
0
100
AcDbCircle
10
-988.24399275660062
20
767.81624416171655
30
0
40
0.99999999999994316
210
0
220
0
230
1
0
CIRCLE
5
103
100
AcDbEntity
8
0
100
AcDbCircle
10
-930.16248960739529
20
810.28813124197075
30
0
40
0.99999999999994316
210
0
220
0
230
1
0
CIRCLE
5
104
100
AcDbEntity
8
0
100
AcDbCircle
10
-1060.3728660381742
20
764.83388410320867
30
0
40
0.99999999999994316
210
0
220
0
230
1
0
CIRCLE
5
105
100
AcDbEntity
8
0
100
AcDbCircle
10
-961.99786603802977
20
666.8351537093497
30
0
40
0.99999999999994316
210
0
220
0
230
1
0
CIRCLE
5
106
100
AcDbEntity
8
0
100
AcDbCircle
10
-864.74786603691587
20
823.33388410316229
30
0
40
0.99999999999994316
210
0
220
0
230
1
0
CIRCLE
5
107
100
AcDbEntity
8
0
100
AcDbCircle
10
-952.3728660379777
20
817.70888410316093
30
0
40
0.99999999999994316
210
0
220
0
230
1
0
CIRCLE
5
108
100
AcDbEntity
8
0
100
AcDbCircle
10
-919.8728660379777
20
817.70888410316093
30
0
40
0.99999999999994316
210
0
220
0
230
1
0
CIRCLE
5
109
100
AcDbEntity
8
0
100
AcDbCircle
10
-864.12286603688563
20
871.20888410317525
30
0
40
0.99999999999994316
210
0
220
0
230
1
0
CIRCLE
5
110
100
AcDbEntity
8
0
100
AcDbCircle
10
-1037.664745618803
20
829.44124416173224
30
0
40
0.99999999999994316
210
0
220
0
230
1
0
CIRCLE
5
111
100
AcDbEntity
8
0
100
AcDbCircle
10
-862.24786603689256
20
799.33388410313933
30
0
40
0.99999999999994316
210
0
220
0
230
1
0
CIRCLE
5
112
100
AcDbEntity
8
0
100
AcDbCircle
10
-854.24786603689267
20
799.33388410314376
30
0
40
0.99999999999994316
210
0
220
0
230
1
0
CIRCLE
5
113
100
AcDbEntity
8
0
100
AcDbCircle
10
-967.87286603797793
20
817.7088841031632
30
0
40
0.99999999999994316
210
0
220
0
230
1
0
CIRCLE
5
114
100
AcDbEntity
8
0
100
AcDbCircle
10
-984.12286603797793
20
801.4588841031632
30
0
40
0.99999999999994316
210
0
220
0
230
1
0
CIRCLE
5
115
100
AcDbEntity
8
0
100
AcDbCircle
10
-1069.6228660379652
20
845.70888410316968
30
0
40
0.99999999999994316
210
0
220
0
230
1
0
CIRCLE
5
116
100
AcDbEntity
8
0
100
AcDbCircle
10
-984.12286603797793
20
833.9588841031632
30
0
40
0.99999999999994316
210
0
220
0
230
1
0
CIRCLE
5
117
100
AcDbEntity
8
0
100
AcDbCircle
10
-937.62286603797929
20
788.28813124195472
30
0
40
0.99999999999994316
210
0
220
0
230
1
0
CIRCLE
5
118
100
AcDbEntity
8
0
100
AcDbCircle
10
-1088.6228660381435
20
789.20888410318958
30
0
40
0.99999999999994316
210
0
220
0
230
1
0
CIRCLE
5
119
100
AcDbEntity
8
0
100
AcDbCircle
10
-984.1228660379785
20
788.70888410316729
30
0
40
0.99999999999994316
210
0
220
0
230
1
0
CIRCLE
5
120
100
AcDbEntity
8
0
100
AcDbCircle
10
-945.08324246856591
20
810.28813124197075
30
0
40
0.99999999999994316
210
0
220
0
230
1
0
CIRCLE
5
121
100
AcDbEntity
8
0
100
AcDbCircle
10
-930.16248960739529
20
825.20888410314126
30
0
40
0.99999999999994316
210
0
220
0
230
1
0
CIRCLE
5
122
100
AcDbEntity
8
0
100
AcDbCircle
10
-1012.9314927566156
20
743.44124416173247
30
0
40
0.99999999999994316
210
0
220
0
230
1
0
CIRCLE
5
123
100
AcDbEntity
8
0
100
AcDbCircle
10
-937.62286603801772
20
666.83515370932901
30
0
40
3.4999999999999432
210
0
220
0
230
1
0
CIRCLE
5
124
100
AcDbEntity
8
0
100
AcDbCircle
10
-962.99599275661421
20
871.2088841031283
30
0
40
0.99999999999994316
210
0
220
0
230
1
0
CIRCLE
5
125
100
AcDbEntity
8
0
100
AcDbCircle
10
-1007.6228660380303
20
666.83515370934924
30
0
40
0.99999999999994316
210
0
220
0
230
1
0
CIRCLE
5
126
100
AcDbEntity
8
0
100
AcDbCircle
10
-1007.9978660379991
20
764.8338841031831
30
0
40
0.99999999999994316
210
0
220
0
230
1
0
CIRCLE
5
127
100
AcDbEntity
8
0
100
AcDbCircle
10
-1031.9978660380032
20
740.33388410318696
30
0
40
0.99999999999994316
210
0
220
0
230
1
0
CIRCLE
5
128
100
AcDbEntity
8
0
100
AcDbCircle
10
-1008.6228660379949
20
871.20888410318332
30
0
40
0.99999999999994316
210
0
220
0
230
1
0
CIRCLE
5
129
100
AcDbEntity
8
0
100
AcDbCircle
10
-937.6228660379802
20
691.21013124195588
30
0
40
0.99999999999994316
210
0
220
0
230
1
0
CIRCLE
5
130
100
AcDbEntity
8
0
100
AcDbCircle
10
-936.1228660379777
20
801.45888410316093
30
0
40
0.99999999999994316
210
0
220
0
230
1
0
CIRCLE
5
131
100
AcDbEntity
8
0
100
AcDbCircle
10
-1069.6228660379652
20
884.70888410316991
30
0
40
0.99999999999994316
210
0
220
0
230
1
0
CIRCLE
5
132
100
AcDbEntity
8
0
100
AcDbCircle
10
-1000.3728660379779
20
817.7088841031632
30
0
40
0.99999999999994316
210
0
220
0
230
1
0
CIRCLE
5
133
100
AcDbEntity
8
0
100
AcDbCircle
10
-1037.664745618803
20
789.44124416173224
30
0
40
0.99999999999994316
210
0
220
0
230
1
0
CIRCLE
5
134
100
AcDbEntity
8
0
100
AcDbCircle
10
-862.24786603689324
20
847.33388410313921
30
0
40
0.99999999999994316
210
0
220
0
230
1
0
CIRCLE
5
135
100
AcDbEntity
8
0
100
AcDbCircle
10
-854.24786603689336
20
847.33388410314365
30
0
40
0.99999999999994316
210
0
220
0
230
1
0
CIRCLE
5
136
100
AcDbEntity
8
0
100
AcDbCircle
10
-988.24399275661119
20
846.83424416171749
30
0
40
0.99999999999994316
210
0
220
0
230
1
0
CIRCLE
5
137
100
AcDbEntity
8
0
100
AcDbCircle
10
-1094.6647456187948
20
845.70888410316968
30
0
40
0.99999999999994316
210
0
220
0
230
1
0
CIRCLE
5
138
100
AcDbEntity
8
0
100
AcDbCircle
10
-1094.6647456187948
20
884.70888410316991
30
0
40
0.99999999999994316
210
0
220
0
230
1
0
CIRCLE
5
139
100
AcDbEntity
8
0
100
AcDbCircle
10
-936.1228660379777
20
833.95888410316093
30
0
40
0.99999999999994316
210
0
220
0
230
1
0
CIRCLE
5
140
100
AcDbEntity
8
0
100
AcDbCircle
10
-1087.1647456188637
20
719.56624416165664
30
0
40
0.99999999999994316
210
0
220
0
230
1
0
CIRCLE
5
141
100
AcDbEntity
8
0
100
AcDbCircle
10
-936.12286603797952
20
723.70888410316547
30
0
40
0.99999999999994316
210
0
220
0
230
1
0
CIRCLE
5
142
100
AcDbEntity
8
0
100
AcDbCircle
10
-1031.9978660380038
20
691.52215370933561
30
0
40
0.99999999999994316
210
0
220
0
230
1
0
CIRCLE
5
143
100
AcDbEntity
8
0
100
AcDbCircle
10
-945.08324246856591
20
825.20888410314126
30
0
40
0.99999999999994316
210
0
220
0
230
1
0
CIRCLE
5
144
100
AcDbEntity
8
0
100
AcDbCircle
10
-912.81036603799475
20
871.20888410313842
30
0
40
0.99999999999994316
210
0
220
0
230
1
0
CIRCLE
5
145
100
AcDbEntity
8
0
100
AcDbCircle
10
-1062.4772456188148
20
743.4412441617327
30
0
40
0.99999999999994316
210
0
220
0
230
1
0
CIRCLE
5
146
100
AcDbEntity
8
0
100
AcDbCircle
10
-1087.1647456188609
20
743.44124416165243
30
0
40
3.4999999999999432
210
0
220
0
230
1
0
LWPOLYLINE
5
147
100
AcDbEntity
8
0
100
AcDbPolyline
90
4
70
1
43
0.0
10
-811.66474561878931
20
650.00000000001228
10
-811.66474561878931
20
900.0000000000291
10
-1137.6647456187943
20
900.00000000002058
10
-1137.6647456187943
20
650.00000000002058
0
CIRCLE
5
148
100
AcDbEntity
8
0
100
AcDbCircle
10
-829.66477476691477
20
860.00000000002865
30
0
40
3.4999999999999432
210
-0
220
0
230
1
0
CIRCLE
5
149
100
AcDbEntity
8
0
100
AcDbCircle
10
-1119.6647456187891
20
860.00000000002103
30
0
40
3.4999999999999432
210
-0
220
0
230
1
0
CIRCLE
5
150
100
AcDbEntity
8
0
100
AcDbCircle
10
-1119.6647456187909
20
690.00000000002092
30
0
40
3.4999999999999432
210
-0
220
0
230
1
0
CIRCLE
5
151
100
AcDbEntity
8
0
100
AcDbCircle
10
-829.66477476691523
20
690.00000000001194
30
0
40
3.4999999999999432
210
-0
220
0
230
1
0
ENDSEC
0
SECTION
2
OBJECTS
0
DICTIONARY
5
C
100
AcDbDictionary
3
ACAD_GROUP
350
D
3
ACAD_MLINESTYLE
350
17
0
DICTIONARY
5
D
100
AcDbDictionary
0
DICTIONARY
5
1A
330
C
100
AcDbDictionary
0
DICTIONARY
5
17
100
AcDbDictionary
0
ENDSEC
0
EOF
