0
SECTION
2
HEADER
9
$INSUNITS
70
4
9
$ACADVER
1
AC1014
9
$HANDSEED
5
FFFF
0
ENDSEC
0
SECTION
2
TABLES
0
TABLE
2
VPORT
5
8
100
AcDbSymbolTable
0
ENDTAB
0
TABLE
2
LTYPE
5
5
100
AcDbSymbolTable
0
LTYPE
5
14
100
AcDbSymbolTableRecord
100
AcDbLinetypeTableRecord
2
BYBLOCK
70
0
0
LTYPE
5
15
100
AcDbSymbolTableRecord
100
AcDbLinetypeTableRecord
2
BYLAYER
70
0
0
ENDTAB
0
TABLE
2
LAYER
5
2
100
AcDbSymbolTable
70
2
0
LAYER
5
50
100
AcDbSymbolTableRecord
100
AcDbLayerTableRecord
2
0
70
0
6
CONTINUOUS
0
ENDTAB
0
TABLE
2
STYLE
5
3
100
AcDbSymbolTable
70
1
0
STYLE
5
11
100
AcDbSymbolTableRecord
100
AcDbTextStyleTableRecord
2
STANDARD
70
0
0
ENDTAB
0
TABLE
2
VIEW
5
6
100
AcDbSymbolTable
70
0
0
ENDTAB
0
TABLE
2
UCS
5
7
100
AcDbSymbolTable
70
0
0
ENDTAB
0
TABLE
2
APPID
5
9
100
AcDbSymbolTable
70
2
0
APPID
5
12
100
AcDbSymbolTableRecord
100
AcDbRegAppTableRecord
2
ACAD
70
0
0
ENDTAB
0
TABLE
2
DIMSTYLE
5
A
100
AcDbSymbolTable
70
1
0
ENDTAB
0
TABLE
2
BLOCK_RECORD
5
1
100
AcDbSymbolTable
70
1
0
BLOCK_RECORD
5
1F
100
AcDbSymbolTableRecord
100
AcDbBlockTableRecord
2
*MODEL_SPACE
0
BLOCK_RECORD
5
1B
100
AcDbSymbolTableRecord
100
AcDbBlockTableRecord
2
*PAPER_SPACE
0
ENDTAB
0
ENDSEC
0
SECTION
2
BLOCKS
0
BLOCK
5
20
100
AcDbEntity
100
AcDbBlockBegin
2
*MODEL_SPACE
0
ENDBLK
5
21
100
AcDbEntity
100
AcDbBlockEnd
0
BLOCK
5
1C
100
AcDbEntity
100
AcDbBlockBegin
2
*PAPER_SPACE
0
ENDBLK
5
1D
100
AcDbEntity
100
AcDbBlockEnd
0
ENDSEC
0
SECTION
2
ENTITIES
0
LINE
5
100
100
AcDbEntity
8
0
100
AcDbLine
10
809.30576502458644
20
618.00002914865695
30
0
11
809.30576502458644
21
588.00002914865695
31
0
0
LINE
5
101
100
AcDbEntity
8
0
100
AcDbLine
10
809.30576502458644
20
588.00002914865695
30
0
11
847.66477476691693
21
588.00002914865695
31
0
0
SPLINE
5
102
100
AcDbEntity
8
0
100
AcDbSpline
70
0
71
3
72
28
73
24
74
0
42
0.000000001
43
0.0000000001
44
0.0000000001
40
-22.629179347727614
40
-22.629179347727614
40
-22.629179347727614
40
-22.629179347727614
40
-20.482787006776167
40
-20.482787006776167
40
-18.930501763900505
40
-18.930501763900505
40
-17.162130851141328
40
-17.162130851141328
40
-13.357508267512493
40
-13.357508267512493
40
-11.684507904832689
40
-11.684507904832689
40
-10.062837140775695
40
-10.062837140775695
40
-7.6777115360197996
40
-7.6777115360197996
40
-4.3101793039678551
40
-4.3101793039678551
40
-2.5050224840816799
40
-2.5050224840816799
40
-1.2603693421924591
40
-1.2603693421924591
40
0
40
0
40
0
40
0
10
847.66477476691693
20
588.00002914865695
30
0
10
854.81300127599229
20
588.00002914865684
30
0
10
862.0722620523303
20
587.06144481693718
30
0
10
873.52716981430024
20
582.43854057866417
30
0
10
877.77786189977473
20
579.68525727362339
30
0
10
885.66317321361555
20
571.88711706949198
30
0
10
888.81266807479722
20
566.88744682572246
30
0
10
896.35808558209033
20
549.89588357953289
30
0
10
898.24329616083332
20
535.96404550100954
30
0
10
899.45090972011008
20
517.44155694431561
30
0
10
899.71959436385828
20
509.77084772177432
30
0
10
900.15971980827271
20
488.11317743204461
30
0
10
900.18875299559204
20
481.16305968160384
30
0
10
898.43828565646629
20
461.58952693542852
30
0
10
896.0930099885029
20
451.00213914018104
30
0
10
891.0696590448116
20
432.52868983453004
30
0
10
886.86398727627079
20
421.05592518064452
30
0
10
878.17423116239547
20
406.22571721475333
30
0
10
874.48710576073893
20
401.1694853053296
30
0
10
867.00471645002631
20
394.31112987797053
30
0
10
863.59349564184856
20
391.98000064304972
30
0
10
855.89456764941042
20
388.75971100146336
30
0
10
851.86600590755859
20
388.00002914865092
30
0
10
847.66477476691705
20
388.00002914865098
30
0
0
LINE
5
103
100
AcDbEntity
8
0
100
AcDbLine
10
847.66477476691705
20
388.00002914865098
30
0
11
809.30576502458712
21
388.00002914865104
31
0
0
LINE
5
104
100
AcDbEntity
8
0
100
AcDbLine
10
809.30576502458712
20
388.00002914865104
30
0
11
809.30576502458746
21
358.00002914865104
31
0
0
LINE
5
105
100
AcDbEntity
8
0
100
AcDbLine
10
809.30576502458746
20
358.00002914865104
30
0
11
847.66477476691705
21
358.00002914865104
31
0
0
SPLINE
5
106
100
AcDbEntity
8
0
100
AcDbSpline
70
0
71
3
72
18
73
14
74
0
42
0.000000001
43
0.0000000001
44
0.0000000001
40
-17.137388625668748
40
-17.137388625668748
40
-17.137388625668748
40
-17.137388625668748
40
-15.528641126320137
40
-15.528641126320137
40
-14.002528501599553
40
-14.002528501599553
40
-10.817037645235249
40
-10.817037645235249
40
-7.9700409504245435
40
-7.9700409504245435
40
-4.4757139170895899
40
-4.4757139170895899
40
0
40
0
40
0
40
0
10
847.66477476691705
20
358.00002914865104
30
0
10
858.91924469686489
20
358.00002914865104
30
0
10
867.8249060080966
20
359.57267623496352
30
0
10
882.1200156488394
20
365.04151756994696
30
0
10
887.63214476643884
20
368.80128637596187
30
0
10
902.32475755498842
20
382.79103796043023
30
0
10
908.95562759527979
20
395.58249841582261
30
0
10
927.37004157143951
20
420.75445414639671
30
0
10
938.50512186958281
20
432.99859952490101
30
0
10
979.76447116449231
20
458.06103940907133
30
0
10
1006.9929092323918
20
466.23596497386893
30
0
10
1057.731688662886
20
477.65242692444076
30
0
10
1086.7456992284961
20
480.69897617879036
30
0
10
1101.6647456187948
20
480.69897617879036
30
0
0
LINE
5
107
100
AcDbEntity
8
0
100
AcDbLine
10
1101.6647456187948
20
480.69897617879042
30
0
11
1137.6647456187943
21
480.69897617879036
31
0
0
LINE
5
108
100
AcDbEntity
8
0
100
AcDbLine
10
1137.6647456187943
20
480.69897617879036
30
0
11
1137.6647456187943
21
580.69897617879042
31
0
0
LINE
5
109
100
AcDbEntity
8
0
100
AcDbLine
10
1137.6647456187943
20
580.69897617879042
30
0
11
1101.6647456187948
21
580.69897617879042
31
0
0
SPLINE
5
110
100
AcDbEntity
8
0
100
AcDbSpline
70
0
71
3
72
16
73
12
74
0
42
0.000000001
43
0.0000000001
44
0.0000000001
40
-23.985519893663316
40
-23.985519893663316
40
-23.985519893663316
40
-23.985519893663316
40
-20.126756639139806
40
-20.126756639139806
40
-16.156080382095791
40
-16.156080382095791
40
-9.7762671459657788
40
-9.7762671459657788
40
-3.7162163303577271
40
-3.7162163303577271
40
0
40
0
40
0
40
0
10
1101.6647456187948
20
580.69897617879042
30
0
10
1083.5776232938838
20
580.69897617879042
30
0
10
1068.1703279381829
20
579.31280869336388
30
0
10
1035.848979498676
20
576.0022943206975
30
0
10
1020.2914111414855
20
574.19805509710932
30
0
10
980.02811145516364
20
573.67610689394826
30
0
10
961.1976031699088
20
577.63476355302419
30
0
10
920.31684960460223
20
594.15636399364496
30
0
10
902.25349837775389
20
604.69799364789856
30
0
10
871.54084251710515
20
615.52160693725511
30
0
10
860.05216253477602
20
618.00002914865695
30
0
10
847.66477476691693
20
618.00002914865695
30
0
0
LINE
5
111
100
AcDbEntity
8
0
100
AcDbLine
10
847.66477476691705
20
618.00002914865695
30
0
11
809.30576502458644
21
618.00002914865695
31
0
0
CIRCLE
5
112
100
AcDbEntity
8
0
100
AcDbCircle
10
945.12512204937957
20
532.46040557924232
30
0
40
0.99999999999994316
210
0
220
-0
230
1
0
CIRCLE
5
113
100
AcDbEntity
8
0
100
AcDbCircle
10
930.20436918820906
20
532.46040557924232
30
0
40
0.99999999999994316
210
0
220
-0
230
1
0
CIRCLE
5
114
100
AcDbEntity
8
0
100
AcDbCircle
10
945.12512204937957
20
517.53965271807169
30
0
40
0.99999999999994316
210
0
220
-0
230
1
0
CIRCLE
5
115
100
AcDbEntity
8
0
100
AcDbCircle
10
930.20436918820906
20
517.53965271807169
30
0
40
0.99999999999994316
210
0
220
-0
230
1
0
CIRCLE
5
116
100
AcDbEntity
8
0
100
AcDbCircle
10
1037.6647456187948
20
525.00002914865695
30
0
40
42.5
210
0
220
-0
230
1
0
CIRCLE
5
117
100
AcDbEntity
8
0
100
AcDbCircle
10
829.66477476691784
20
603.00002914865695
30
0
40
3.1000000000000227
210
0
220
-0
230
1
0
CIRCLE
5
118
100
AcDbEntity
8
0
100
AcDbCircle
10
829.66477476691784
20
373.00002914865104
30
0
40
3.1000000000000227
210
0
220
-0
230
1
0
CIRCLE
5
119
100
AcDbEntity
8
0
100
AcDbCircle
10
1119.6647456187945
20
530.69897617879042
30
0
40
3.1000000000000227
210
0
220
-0
230
1
0
CIRCLE
5
120
100
AcDbEntity
8
0
100
AcDbCircle
10
1119.6647456187945
20
530.69897617879042
30
0
40
3.1000000000000227
210
-0
220
0
230
1
0
CIRCLE
5
121
100
AcDbEntity
8
0
100
AcDbCircle
10
829.66477476691784
20
373.00002914865104
30
0
40
3.1000000000000227
210
-0
220
0
230
1
0
CIRCLE
5
122
100
AcDbEntity
8
0
100
AcDbCircle
10
829.66477476691784
20
603.00002914865695
30
0
40
3.1000000000000227
210
-0
220
0
230
1
0
CIRCLE
5
123
100
AcDbEntity
8
0
100
AcDbCircle
10
1037.6647456187948
20
525.00002914865695
30
0
40
42.5
210
-0
220
0
230
1
0
CIRCLE
5
124
100
AcDbEntity
8
0
100
AcDbCircle
10
930.20436918820906
20
517.53965271807169
30
0
40
0.99999999999994316
210
-0
220
0
230
1
0
CIRCLE
5
125
100
AcDbEntity
8
0
100
AcDbCircle
10
945.12512204937957
20
517.53965271807169
30
0
40
0.99999999999994316
210
-0
220
0
230
1
0
CIRCLE
5
126
100
AcDbEntity
8
0
100
AcDbCircle
10
930.20436918820906
20
532.46040557924232
30
0
40
0.99999999999994316
210
-0
220
0
230
1
0
CIRCLE
5
127
100
AcDbEntity
8
0
100
AcDbCircle
10
945.12512204937957
20
532.46040557924232
30
0
40
0.99999999999994316
210
-0
220
0
230
1
0
LINE
5
128
100
AcDbEntity
8
0
100
AcDbLine
10
809.30576502458644
20
618.00002914865684
30
0
11
847.66477476691693
21
618.00002914865684
31
0
0
SPLINE
5
129
100
AcDbEntity
8
0
100
AcDbSpline
70
0
71
3
72
16
73
12
74
0
42
0.000000001
43
0.0000000001
44
0.0000000001
40
0
40
0
40
0
40
0
40
3.7162163303577271
40
3.7162163303577271
40
9.7762671459657788
40
9.7762671459657788
40
16.156080382095791
40
16.156080382095791
40
20.126756639139806
40
20.126756639139806
40
23.985519893663316
40
23.985519893663316
40
23.985519893663316
40
23.985519893663316
10
847.66477476691693
20
618.00002914865695
30
0
10
860.05216253477602
20
618.00002914865695
30
0
10
871.54084251710515
20
615.52160693725511
30
0
10
902.25349837775389
20
604.69799364789856
30
0
10
920.31684960460223
20
594.15636399364496
30
0
10
961.1976031699088
20
577.63476355302419
30
0
10
980.02811145516364
20
573.67610689394826
30
0
10
1020.2914111414855
20
574.19805509710932
30
0
10
1035.848979498676
20
576.0022943206975
30
0
10
1068.1703279381829
20
579.31280869336388
30
0
10
1083.5776232938838
20
580.69897617879042
30
0
10
1101.6647456187948
20
580.69897617879042
30
0
0
LINE
5
130
100
AcDbEntity
8
0
100
AcDbLine
10
1101.6647456187948
20
580.69897617879042
30
0
11
1137.6647456187943
21
580.69897617879042
31
0
0
LINE
5
131
100
AcDbEntity
8
0
100
AcDbLine
10
1137.6647456187943
20
580.69897617879042
30
0
11
1137.6647456187943
21
480.69897617879036
31
0
0
LINE
5
132
100
AcDbEntity
8
0
100
AcDbLine
10
1137.6647456187943
20
480.69897617879036
30
0
11
1101.6647456187948
21
480.69897617879036
31
0
0
SPLINE
5
133
100
AcDbEntity
8
0
100
AcDbSpline
70
0
71
3
72
18
73
14
74
0
42
0.000000001
43
0.0000000001
44
0.0000000001
40
0
40
0
40
0
40
0
40
4.4757139170895899
40
4.4757139170895899
40
7.9700409504245435
40
7.9700409504245435
40
10.817037645235249
40
10.817037645235249
40
14.002528501599553
40
14.002528501599553
40
15.528641126320137
40
15.528641126320137
40
17.137388625668748
40
17.137388625668748
40
17.137388625668748
40
17.137388625668748
10
1101.6647456187948
20
480.69897617879036
30
0
10
1086.7456992284961
20
480.69897617879036
30
0
10
1057.731688662886
20
477.65242692444076
30
0
10
1006.9929092323918
20
466.23596497386893
30
0
10
979.76447116449231
20
458.06103940907133
30
0
10
938.50512186958281
20
432.99859952490101
30
0
10
927.37004157143951
20
420.75445414639671
30
0
10
908.95562759527979
20
395.58249841582261
30
0
10
902.32475755498842
20
382.79103796043023
30
0
10
887.63214476643884
20
368.80128637596187
30
0
10
882.1200156488394
20
365.04151756994696
30
0
10
867.8249060080966
20
359.57267623496352
30
0
10
858.91924469686489
20
358.00002914865104
30
0
10
847.66477476691705
20
358.00002914865104
30
0
0
LINE
5
134
100
AcDbEntity
8
0
100
AcDbLine
10
847.66477476691705
20
358.00002914865104
30
0
11
809.30576502458746
21
358.00002914865104
31
0
0
LINE
5
135
100
AcDbEntity
8
0
100
AcDbLine
10
809.30576502458746
20
358.00002914865104
30
0
11
809.30576502458712
21
388.00002914865104
31
0
0
LINE
5
136
100
AcDbEntity
8
0
100
AcDbLine
10
809.30576502458712
20
388.00002914865104
30
0
11
847.66477476691705
21
388.00002914865098
31
0
0
SPLINE
5
137
100
AcDbEntity
8
0
100
AcDbSpline
70
0
71
3
72
28
73
24
74
0
42
0.000000001
43
0.0000000001
44
0.0000000001
40
0
40
0
40
0
40
0
40
1.2603693421924591
40
1.2603693421924591
40
2.5050224840816799
40
2.5050224840816799
40
4.3101793039678551
40
4.3101793039678551
40
7.6777115360197996
40
7.6777115360197996
40
10.062837140775695
40
10.062837140775695
40
11.684507904832689
40
11.684507904832689
40
13.357508267512493
40
13.357508267512493
40
17.162130851141328
40
17.162130851141328
40
18.930501763900505
40
18.930501763900505
40
20.482787006776167
40
20.482787006776167
40
22.629179347727614
40
22.629179347727614
40
22.629179347727614
40
22.629179347727614
10
847.66477476691705
20
388.00002914865098
30
0
10
851.86600590755859
20
388.00002914865092
30
0
10
855.89456764941042
20
388.75971100146336
30
0
10
863.59349564184856
20
391.98000064304972
30
0
10
867.00471645002631
20
394.31112987797053
30
0
10
874.48710576073893
20
401.1694853053296
30
0
10
878.17423116239547
20
406.22571721475333
30
0
10
886.86398727627079
20
421.05592518064452
30
0
10
891.0696590448116
20
432.52868983453004
30
0
10
896.0930099885029
20
451.00213914018104
30
0
10
898.43828565646629
20
461.58952693542852
30
0
10
900.18875299559204
20
481.16305968160384
30
0
10
900.15971980827271
20
488.11317743204461
30
0
10
899.71959436385828
20
509.77084772177432
30
0
10
899.45090972011008
20
517.44155694431561
30
0
10
898.24329616083332
20
535.96404550100954
30
0
10
896.35808558209033
20
549.89588357953289
30
0
10
888.81266807479722
20
566.88744682572246
30
0
10
885.66317321361555
20
571.88711706949198
30
0
10
877.77786189977473
20
579.68525727362339
30
0
10
873.52716981430024
20
582.43854057866417
30
0
10
862.0722620523303
20
587.06144481693718
30
0
10
854.81300127599229
20
588.00002914865684
30
0
10
847.66477476691693
20
588.00002914865695
30
0
0
LINE
5
138
100
AcDbEntity
8
0
100
AcDbLine
10
847.66477476691693
20
588.00002914865695
30
0
11
809.30576502458644
21
588.00002914865684
31
0
0
LINE
5
139
100
AcDbEntity
8
0
100
AcDbLine
10
809.30576502458644
20
588.00002914865684
30
0
11
809.30576502458644
21
618.00002914865684
31
0
0
ENDSEC
0
SECTION
2
OBJECTS
0
DICTIONARY
5
C
100
AcDbDictionary
3
ACAD_GROUP
350
D
3
ACAD_MLINESTYLE
350
17
0
DICTIONARY
5
D
100
AcDbDictionary
0
DICTIONARY
5
1A
330
C
100
AcDbDictionary
0
DICTIONARY
5
17
100
AcDbDictionary
0
ENDSEC
0
EOF
